<svg width="371" height="371" viewBox="0 0 371 371" fill="none" xmlns="http://www.w3.org/2000/svg">
<circle cx="185.5" cy="185.5" r="185.5" fill="black"/>
<path d="M106.276 109.975L120.926 131.876C127.872 142.295 133.82 151.328 136.006 154.702L123.426 172.001C121.793 169.724 119.153 165.929 116.191 161.665C102.324 141.421 84.11 114.668 81 110.016L106.276 109.975Z" fill="white"/>
<path d="M265.025 109.701L246.415 137.765C235.55 154.124 226.501 167.496 226.253 167.504C226.006 167.421 216.825 154.239 205.993 138.252C196.696 124.583 188.727 112.993 186.409 109.85C186.005 109.289 185.766 109 185.733 109C185.675 109 185.42 109.289 184.999 109.841C183.563 111.706 180.198 116.474 176.436 122.042C171.668 129.153 148.545 163.173 125.258 197.614C103.9 229.093 85.5704 256.15 82.0644 261.389L107.348 261.348L125.159 234.488C136.023 218.13 145.072 204.758 145.32 204.749C145.567 204.832 154.74 217.932 165.663 234.001C174.118 246.441 181.526 257.099 184.595 261.207C185.486 262.395 186.013 263.047 186.088 262.997C186.261 262.956 186.574 262.651 187.639 261.199C190.749 256.984 200.21 243.042 230.931 197.589C248.13 172.156 268.448 141.997 276.104 130.696C282.827 120.788 288.684 112.118 290.326 109.652L265.033 109.693L265.025 109.701ZM200.012 164.41C207.618 175.869 213.739 185.594 213.748 186.089C213.748 187.162 186.673 228.623 185.931 228.623C185.271 228.54 157.727 187.261 157.727 186.188C157.727 185.199 185.123 143.738 185.782 143.647C186.112 143.647 192.481 153.043 200.004 164.41H200.012Z" fill="white"/>
<path d="M248.155 200.314C250.836 204.093 256.363 212.053 262.641 221.218C271.41 234.07 281.49 248.82 285.054 254.009L289.896 261.029L264.142 261.079C263.136 259.206 256.891 249.563 249.392 238.401C243.247 229.236 237.934 221.111 235.674 217.481L248.155 200.314Z" fill="white"/>
</svg>
